<svg width="64" height="64" viewBox="0 0 64 64" fill="none" xmlns="http://www.w3.org/2000/svg">
<path d="M25.5307 36.4733L21.6277 44.9939L55.8872 16.876L25.5307 36.4733Z" fill="url(#paint0_linear_403_151)"/>
<path d="M41.8793 43.5586C40.9957 45.2706 38.7956 45.7961 37.2338 44.668L25.9028 36.4824L55.3383 17.4805L41.8793 43.5586Z" fill="url(#paint1_linear_403_151)" stroke="url(#paint2_linear_403_151)" stroke-width="0.420112"/>
<path d="M17.7248 33.9171L55.8872 16.876L25.5307 36.4733L21.6278 44.9939L17.7248 33.9171Z" fill="url(#paint3_linear_403_151)"/>
<path d="M17.7017 33.6973L8.2486 31.6338C6.94913 31.3501 6.91846 29.5078 8.20758 29.1807L53.5709 17.6797L17.7017 33.6973Z" fill="url(#paint4_linear_403_151)" stroke="url(#paint5_linear_403_151)" stroke-width="0.420112"/>
<defs>
<linearGradient id="paint0_linear_403_151" x1="28.1327" y1="34.7692" x2="31.052" y2="37.5132" gradientUnits="userSpaceOnUse">
<stop stop-color="#42B5E7"/>
<stop offset="1" stop-color="#0D57A1"/>
</linearGradient>
<linearGradient id="paint1_linear_403_151" x1="36.3723" y1="30.0829" x2="47.4399" y2="41.7821" gradientUnits="userSpaceOnUse">
<stop stop-color="#3BA3D7"/>
<stop offset="1" stop-color="#1957C3"/>
</linearGradient>
<linearGradient id="paint2_linear_403_151" x1="26.3225" y1="36.1657" x2="55.7952" y2="17.2156" gradientUnits="userSpaceOnUse">
<stop stop-color="white"/>
<stop offset="1" stop-color="white" stop-opacity="0"/>
</linearGradient>
<linearGradient id="paint3_linear_403_151" x1="29" y1="30.0829" x2="34.494" y2="39.1168" gradientUnits="userSpaceOnUse">
<stop stop-color="#B3E7FA"/>
<stop offset="1" stop-color="#38ACFF"/>
</linearGradient>
<linearGradient id="paint4_linear_403_151" x1="17.7247" y1="33.9171" x2="14.3648" y2="23.6566" gradientUnits="userSpaceOnUse">
<stop stop-color="#3BA3D7"/>
<stop offset="1" stop-color="#1971C3"/>
</linearGradient>
<linearGradient id="paint5_linear_403_151" x1="17.2911" y1="33.9171" x2="15.6119" y2="28.362" gradientUnits="userSpaceOnUse">
<stop stop-color="white"/>
<stop offset="1" stop-color="white" stop-opacity="0"/>
</linearGradient>
</defs>
</svg>
